STARTFONT 2.1
COMMENT $XConsortium: lubBI10.bdf,v 1.10 94/04/02 16:24:32 gildea Exp $
COMMENT  (c) Copyright Bigelow & Holmes 1986, 1985. Lucida is a registered
COMMENT  trademark of Bigelow & Holmes. See LEGAL NOTICE file for terms 
COMMENT  of the license. 
COMMENT  
COMMENT  Translation to ISO8859-2 by Cub Soft;  Petr.Kolar@vslib.cz
COMMENT  
FONT -B&H-LucidaBright-DemiBold-I-Normal--14-100-100-100-P-84-ISO8859-2
SIZE 10 100 100
FONTBOUNDINGBOX 24 16 -8 -3
STARTPROPERTIES 20
COMMENT Begin LogicalFontDescription
FONTNAME_REGISTRY ""
FOUNDRY "B&H"
FAMILY_NAME "LucidaBright"
WEIGHT_NAME "DemiBold"
SLANT "I"
SETWIDTH_NAME "Normal"
ADD_STYLE_NAME ""
PIXEL_SIZE 14
POINT_SIZE 100
RESOLUTION_X 100
RESOLUTION_Y 100
SPACING "P"
AVERAGE_WIDTH 84
CHARSET_REGISTRY "ISO8859"
CHARSET_ENCODING "2"
COMMENT END LogicalFontDescription
FONT_ASCENT 13
FONT_DESCENT 3
DEFAULT_CHAR 0
COPYRIGHT "Copyright Bigelow & Holmes 1986, 1985., Copyright 1996 Cub Soft"
FACE_NAME "Lucida Bright Demibold Italic"
ENDPROPERTIES
CHARS 191
STARTCHAR space
ENCODING 32
SWIDTH 333 0
DWIDTH 4 0
BBX 1 1 0 0
BITMAP
00
ENDCHAR
STARTCHAR exclam
ENCODING 33
SWIDTH 265 0
DWIDTH 4 0
BBX 4 10 1 0
BITMAP
30
30
20
60
60
60
40
00
c0
c0
ENDCHAR
STARTCHAR quotedbl
ENCODING 34
SWIDTH 451 0
DWIDTH 6 0
BBX 5 4 2 6
BITMAP
d8
d8
d8
90
ENDCHAR
STARTCHAR numbersign
ENCODING 35
SWIDTH 636 0
DWIDTH 9 0
BBX 9 10 1 0
BITMAP
0480
0900
0900
7f80
1200
2400
ff00
4800
4800
9000
ENDCHAR
STARTCHAR dollar
ENCODING 36
SWIDTH 636 0
DWIDTH 9 0
BBX 8 13 2 -2
BITMAP
04
1f
39
29
38
18
0c
16
96
9c
f8
20
20
ENDCHAR
STARTCHAR percent
ENCODING 37
SWIDTH 772 0
DWIDTH 11 0
BBX 10 10 1 0
BITMAP
7840
4880
c900
da00
7400
0bc0
1a40
3640
66c0
c380
ENDCHAR
STARTCHAR ampersand
ENCODING 38
SWIDTH 773 0
DWIDTH 11 0
BBX 11 10 1 0
BITMAP
0f00
1900
1900
1e00
2de0
ccc0
c680
c700
e300
7fc0
ENDCHAR
STARTCHAR apostrophe
ENCODING 39
SWIDTH 265 0
DWIDTH 4 0
BBX 3 4 2 6
BITMAP
60
e0
40
c0
ENDCHAR
STARTCHAR parenleft
ENCODING 40
SWIDTH 336 0
DWIDTH 5 0
BBX 5 13 1 -3
BITMAP
08
10
20
60
60
c0
c0
c0
c0
c0
c0
40
20
ENDCHAR
STARTCHAR parenright
ENCODING 41
SWIDTH 336 0
DWIDTH 5 0
BBX 5 13 0 -3
BITMAP
10
10
18
18
18
18
18
18
10
30
20
40
80
ENDCHAR
STARTCHAR asterisk
ENCODING 42
SWIDTH 434 0
DWIDTH 6 0
BBX 5 5 2 5
BITMAP
30
a8
d0
f0
90
ENDCHAR
STARTCHAR plus
ENCODING 43
SWIDTH 636 0
DWIDTH 9 0
BBX 8 8 1 0
BITMAP
08
08
08
08
ff
10
10
10
ENDCHAR
STARTCHAR comma
ENCODING 44
SWIDTH 265 0
DWIDTH 4 0
BBX 3 5 0 -3
BITMAP
60
60
e0
40
c0
ENDCHAR
STARTCHAR minus
ENCODING 45
SWIDTH 636 0
DWIDTH 9 0
BBX 8 1 1 3
BITMAP
ff
ENDCHAR
STARTCHAR period
ENCODING 46
SWIDTH 265 0
DWIDTH 4 0
BBX 3 2 1 0
BITMAP
e0
e0
ENDCHAR
STARTCHAR slash
ENCODING 47
SWIDTH 515 0
DWIDTH 7 0
BBX 10 13 0 -3
BITMAP
00c0
0080
0100
0300
0200
0400
0c00
0800
1000
3000
2000
4000
c000
ENDCHAR
STARTCHAR zero
ENCODING 48
SWIDTH 623 0
DWIDTH 9 0
BBX 8 10 1 0
BITMAP
1e
33
63
63
c3
c3
c3
c6
cc
78
ENDCHAR
STARTCHAR one
ENCODING 49
SWIDTH 636 0
DWIDTH 9 0
BBX 6 10 2 0
BITMAP
3c
0c
18
18
18
18
18
30
30
fc
ENDCHAR
STARTCHAR two
ENCODING 50
SWIDTH 636 0
DWIDTH 9 0
BBX 8 10 1 0
BITMAP
1e
27
23
03
0e
18
20
40
fe
fc
ENDCHAR
STARTCHAR three
ENCODING 51
SWIDTH 636 0
DWIDTH 9 0
BBX 8 10 1 0
BITMAP
3e
23
23
06
38
06
06
86
8e
f8
ENDCHAR
STARTCHAR four
ENCODING 52
SWIDTH 636 0
DWIDTH 9 0
BBX 8 10 1 0
BITMAP
03
07
0a
16
26
46
ff
0c
0c
1e
ENDCHAR
STARTCHAR five
ENCODING 53
SWIDTH 636 0
DWIDTH 9 0
BBX 8 10 2 0
BITMAP
3f
20
20
78
0c
06
06
86
8c
f8
ENDCHAR
STARTCHAR six
ENCODING 54
SWIDTH 636 0
DWIDTH 9 0
BBX 8 10 2 0
BITMAP
0f
31
61
60
fe
e6
c3
c6
46
38
ENDCHAR
STARTCHAR seven
ENCODING 55
SWIDTH 636 0
DWIDTH 9 0
BBX 8 10 2 0
BITMAP
7f
7f
02
04
08
10
30
60
c0
c0
ENDCHAR
STARTCHAR eight
ENCODING 56
SWIDTH 636 0
DWIDTH 9 0
BBX 8 10 1 0
BITMAP
1e
33
33
32
1c
6e
c3
c3
e6
7c
ENDCHAR
STARTCHAR nine
ENCODING 57
SWIDTH 636 0
DWIDTH 9 0
BBX 8 10 1 0
BITMAP
1e
33
63
63
67
3b
07
86
8c
f8
ENDCHAR
STARTCHAR colon
ENCODING 58
SWIDTH 265 0
DWIDTH 4 0
BBX 4 7 1 0
BITMAP
30
70
00
00
00
e0
c0
ENDCHAR
STARTCHAR semicolon
ENCODING 59
SWIDTH 265 0
DWIDTH 4 0
BBX 4 10 0 -3
BITMAP
30
30
00
00
00
60
60
e0
40
c0
ENDCHAR
STARTCHAR less
ENCODING 60
SWIDTH 636 0
DWIDTH 9 0
BBX 9 8 1 0
BITMAP
0080
0300
1c00
e000
6000
1800
0600
0300
ENDCHAR
STARTCHAR equal
ENCODING 61
SWIDTH 636 0
DWIDTH 9 0
BBX 9 4 1 2
BITMAP
ff80
0000
0000
ff80
ENDCHAR
STARTCHAR greater
ENCODING 62
SWIDTH 636 0
DWIDTH 9 0
BBX 9 8 0 0
BITMAP
6000
3000
0c00
0300
0380
1c00
6000
8000
ENDCHAR
STARTCHAR question
ENCODING 63
SWIDTH 493 0
DWIDTH 7 0
BBX 6 10 2 0
BITMAP
78
cc
8c
08
10
20
60
00
c0
c0
ENDCHAR
STARTCHAR at
ENCODING 64
SWIDTH 861 0
DWIDTH 12 0
BBX 11 10 1 0
BITMAP
0f80
3060
4620
49a0
9120
9320
9720
9dc0
4200
3c00
ENDCHAR
STARTCHAR A
ENCODING 65
SWIDTH 765 0
DWIDTH 11 0
BBX 11 10 0 0
BITMAP
0100
0300
0580
0580
0980
1180
1fc0
20c0
40c0
e1e0
ENDCHAR
STARTCHAR B
ENCODING 66
SWIDTH 651 0
DWIDTH 9 0
BBX 9 10 1 0
BITMAP
3f80
1980
1180
3300
3e00
3200
3300
2300
6700
fe00
ENDCHAR
STARTCHAR C
ENCODING 67
SWIDTH 740 0
DWIDTH 10 0
BBX 10 10 1 0
BITMAP
0fc0
38c0
60c0
6000
e000
c000
c000
e000
6100
3e00
ENDCHAR
STARTCHAR D
ENCODING 68
SWIDTH 822 0
DWIDTH 11 0
BBX 11 10 1 0
BITMAP
3f80
18c0
1860
3060
3060
3060
30c0
30c0
6380
fe00
ENDCHAR
STARTCHAR E
ENCODING 69
SWIDTH 630 0
DWIDTH 9 0
BBX 9 10 1 0
BITMAP
3f80
1880
1800
3200
3e00
3200
3000
6000
6100
fe00
ENDCHAR
STARTCHAR F
ENCODING 70
SWIDTH 602 0
DWIDTH 8 0
BBX 9 10 1 0
BITMAP
3f80
1880
1000
3200
3e00
3200
3000
2000
6000
f000
ENDCHAR
STARTCHAR G
ENCODING 71
SWIDTH 780 0
DWIDTH 11 0
BBX 10 10 1 0
BITMAP
0fc0
38c0
7040
6000
e000
c7c0
c180
c380
6300
3f00
ENDCHAR
STARTCHAR H
ENCODING 72
SWIDTH 827 0
DWIDTH 12 0
BBX 13 10 0 0
BITMAP
3ef8
1870
1860
1860
3fe0
3060
30c0
30c0
70c0
fbe0
ENDCHAR
STARTCHAR I
ENCODING 73
SWIDTH 372 0
DWIDTH 5 0
BBX 6 10 1 0
BITMAP
3c
18
38
30
30
30
30
60
60
f0
ENDCHAR
STARTCHAR J
ENCODING 74
SWIDTH 478 0
DWIDTH 7 0
BBX 9 13 0 -3
BITMAP
0f80
0700
0600
0600
0600
0600
0e00
0c00
0c00
0c00
dc00
9800
f000
ENDCHAR
STARTCHAR K
ENCODING 75
SWIDTH 746 0
DWIDTH 10 0
BBX 11 10 0 0
BITMAP
3ce0
18c0
1900
3a00
3c00
3e00
3700
3300
6180
f3c0
ENDCHAR
STARTCHAR L
ENCODING 76
SWIDTH 611 0
DWIDTH 9 0
BBX 8 10 1 0
BITMAP
3c
18
18
30
30
30
30
31
61
ff
ENDCHAR
STARTCHAR M
ENCODING 77
SWIDTH 926 0
DWIDTH 13 0
BBX 14 10 0 0
BITMAP
381c
1838
1c70
2cb0
2cb0
2f30
2630
2660
4060
e0f0
ENDCHAR
STARTCHAR N
ENCODING 78
SWIDTH 797 0
DWIDTH 11 0
BBX 12 10 1 0
BITMAP
3870
1820
1c60
2c40
2640
2640
2340
2380
4180
e080
ENDCHAR
STARTCHAR O
ENCODING 79
SWIDTH 831 0
DWIDTH 12 0
BBX 11 10 2 0
BITMAP
0f80
38c0
70c0
60e0
e0e0
c0c0
c0c0
c180
6300
3c00
ENDCHAR
STARTCHAR P
ENCODING 80
SWIDTH 628 0
DWIDTH 9 0
BBX 9 10 1 0
BITMAP
3f00
1980
1180
3180
3300
3e00
3000
6000
6000
f000
ENDCHAR
STARTCHAR Q
ENCODING 81
SWIDTH 835 0
DWIDTH 12 0
BBX 12 13 2 -3
BITMAP
0f80
38c0
70c0
60e0
e0e0
c0c0
c0c0
c1c0
6380
3f00
0400
0300
00f0
ENDCHAR
STARTCHAR R
ENCODING 82
SWIDTH 711 0
DWIDTH 10 0
BBX 10 10 0 0
BITMAP
3fc0
18c0
18c0
1980
3f00
3600
3300
3300
7180
f1c0
ENDCHAR
STARTCHAR S
ENCODING 83
SWIDTH 587 0
DWIDTH 8 0
BBX 8 10 1 0
BITMAP
1f
31
71
30
38
1e
06
86
8e
f8
ENDCHAR
STARTCHAR T
ENCODING 84
SWIDTH 716 0
DWIDTH 10 0
BBX 10 10 2 0
BITMAP
ffc0
8c40
0c00
1c00
1800
1800
1800
1800
3800
7c00
ENDCHAR
STARTCHAR U
ENCODING 85
SWIDTH 775 0
DWIDTH 11 0
BBX 10 10 2 0
BITMAP
f9c0
6080
6080
6080
e100
c100
c100
c100
e200
7c00
ENDCHAR
STARTCHAR V
ENCODING 86
SWIDTH 741 0
DWIDTH 10 0
BBX 11 10 2 0
BITMAP
f0e0
6040
6080
7180
3100
3200
3600
3c00
1800
1800
ENDCHAR
STARTCHAR W
ENCODING 87
SWIDTH 922 0
DWIDTH 13 0
BBX 13 10 2 0
BITMAP
f238
6310
6720
6720
6b40
6b40
7380
7380
6300
6300
ENDCHAR
STARTCHAR X
ENCODING 88
SWIDTH 672 0
DWIDTH 9 0
BBX 11 10 0 0
BITMAP
3ce0
1840
0c80
0d00
0e00
0e00
1700
2300
4380
e780
ENDCHAR
STARTCHAR Y
ENCODING 89
SWIDTH 669 0
DWIDTH 9 0
BBX 10 10 2 0
BITMAP
f1c0
6080
7100
3200
3c00
1800
1800
3000
3000
7800
ENDCHAR
STARTCHAR Z
ENCODING 90
SWIDTH 684 0
DWIDTH 10 0
BBX 10 10 1 0
BITMAP
3fc0
2180
0300
0700
0e00
1c00
3800
3000
6180
ff00
ENDCHAR
STARTCHAR bracketleft
ENCODING 91
SWIDTH 336 0
DWIDTH 5 0
BBX 6 13 0 -3
BITMAP
1c
30
30
30
30
20
60
60
60
40
40
c0
e0
ENDCHAR
STARTCHAR backslash
ENCODING 92
SWIDTH 515 0
DWIDTH 7 0
BBX 4 13 2 -3
BITMAP
80
80
40
40
40
40
60
20
20
20
20
10
10
ENDCHAR
STARTCHAR bracketright
ENCODING 93
SWIDTH 336 0
DWIDTH 5 0
BBX 6 13 0 -3
BITMAP
1c
0c
08
18
18
18
18
10
30
30
30
30
e0
ENDCHAR
STARTCHAR asciicircum
ENCODING 94
SWIDTH 636 0
DWIDTH 9 0
BBX 8 8 1 2
BITMAP
04
04
0c
12
32
22
43
81
ENDCHAR
STARTCHAR underscore
ENCODING 95
SWIDTH 500 0
DWIDTH 7 0
BBX 6 1 0 -2
BITMAP
fc
ENDCHAR
STARTCHAR grave
ENCODING 96
SWIDTH 599 0
DWIDTH 8 0
BBX 3 2 4 8
BITMAP
c0
20
ENDCHAR
STARTCHAR a
ENCODING 97
SWIDTH 634 0
DWIDTH 9 0
BBX 8 7 1 0
BITMAP
1f
23
62
c6
ce
d6
e7
ENDCHAR
STARTCHAR b
ENCODING 98
SWIDTH 633 0
DWIDTH 9 0
BBX 8 10 1 0
BITMAP
70
30
30
67
7b
73
63
46
c4
f8
ENDCHAR
STARTCHAR c
ENCODING 99
SWIDTH 524 0
DWIDTH 7 0
BBX 7 7 1 0
BITMAP
1e
22
62
c0
c0
c4
78
ENDCHAR
STARTCHAR d
ENCODING 100
SWIDTH 634 0
DWIDTH 9 0
BBX 9 10 1 0
BITMAP
0380
0180
0300
1f00
2300
6300
c700
ce00
de00
f700
ENDCHAR
STARTCHAR e
ENCODING 101
SWIDTH 548 0
DWIDTH 8 0
BBX 7 7 1 0
BITMAP
1c
66
4c
f8
c0
c6
7c
ENDCHAR
STARTCHAR f
ENCODING 102
SWIDTH 415 0
DWIDTH 6 0
BBX 8 14 1 -3
BITMAP
0f
19
19
30
7c
30
30
70
60
60
60
60
c0
c0
ENDCHAR
STARTCHAR g
ENCODING 103
SWIDTH 628 0
DWIDTH 9 0
BBX 9 10 0 -3
BITMAP
0f80
3180
2300
6300
e700
6b00
7700
8600
c600
f800
ENDCHAR
STARTCHAR h
ENCODING 104
SWIDTH 656 0
DWIDTH 9 0
BBX 8 10 1 0
BITMAP
70
30
30
67
6b
73
67
66
c6
c7
ENDCHAR
STARTCHAR i
ENCODING 105
SWIDTH 319 0
DWIDTH 4 0
BBX 4 10 1 0
BITMAP
30
30
00
e0
60
60
60
e0
c0
e0
ENDCHAR
STARTCHAR j
ENCODING 106
SWIDTH 381 0
DWIDTH 5 0
BBX 8 13 0 -3
BITMAP
03
03
00
0e
06
06
0e
0c
0c
0c
98
98
f0
ENDCHAR
STARTCHAR k
ENCODING 107
SWIDTH 626 0
DWIDTH 9 0
BBX 8 10 1 0
BITMAP
70
30
30
73
66
6c
78
6c
ce
c7
ENDCHAR
STARTCHAR l
ENCODING 108
SWIDTH 319 0
DWIDTH 4 0
BBX 4 10 1 0
BITMAP
70
30
70
60
60
60
60
e0
c0
e0
ENDCHAR
STARTCHAR m
ENCODING 109
SWIDTH 969 0
DWIDTH 14 0
BBX 12 7 1 0
BITMAP
e670
6ff0
77b0
6730
4660
c660
ce70
ENDCHAR
STARTCHAR n
ENCODING 110
SWIDTH 656 0
DWIDTH 9 0
BBX 8 7 1 0
BITMAP
f7
6b
73
67
66
c6
c7
ENDCHAR
STARTCHAR o
ENCODING 111
SWIDTH 599 0
DWIDTH 8 0
BBX 8 7 1 0
BITMAP
1e
23
63
c3
c6
cc
78
ENDCHAR
STARTCHAR p
ENCODING 112
SWIDTH 639 0
DWIDTH 9 0
BBX 9 10 1 -3
BITMAP
7780
3d80
3980
7180
6300
6200
7c00
6000
c000
c000
ENDCHAR
STARTCHAR q
ENCODING 113
SWIDTH 630 0
DWIDTH 9 0
BBX 8 10 1 -3
BITMAP
1f
23
63
c6
ce
de
e6
0e
0c
0c
ENDCHAR
STARTCHAR r
ENCODING 114
SWIDTH 496 0
DWIDTH 7 0
BBX 7 7 1 0
BITMAP
e6
6c
70
60
60
c0
c0
ENDCHAR
STARTCHAR s
ENCODING 115
SWIDTH 479 0
DWIDTH 7 0
BBX 7 7 1 0
BITMAP
3e
64
70
38
9c
8c
f8
ENDCHAR
STARTCHAR t
ENCODING 116
SWIDTH 375 0
DWIDTH 5 0
BBX 5 9 1 0
BITMAP
70
60
f8
60
60
60
c0
c0
70
ENDCHAR
STARTCHAR u
ENCODING 117
SWIDTH 655 0
DWIDTH 9 0
BBX 8 7 1 0
BITMAP
e7
63
66
e6
ce
d6
ef
ENDCHAR
STARTCHAR v
ENCODING 118
SWIDTH 584 0
DWIDTH 8 0
BBX 8 7 1 0
BITMAP
e3
63
62
34
38
30
20
ENDCHAR
STARTCHAR w
ENCODING 119
SWIDTH 822 0
DWIDTH 12 0
BBX 11 7 1 0
BITMAP
e460
6660
6640
2e80
3380
3300
2200
ENDCHAR
STARTCHAR x
ENCODING 120
SWIDTH 534 0
DWIDTH 7 0
BBX 7 7 1 0
BITMAP
66
36
3c
18
38
cc
ce
ENDCHAR
STARTCHAR y
ENCODING 121
SWIDTH 586 0
DWIDTH 8 0
BBX 10 10 0 -3
BITMAP
79c0
38c0
1880
1900
1a00
0c00
0c00
0800
1000
e000
ENDCHAR
STARTCHAR z
ENCODING 122
SWIDTH 567 0
DWIDTH 8 0
BBX 8 7 1 0
BITMAP
3f
46
0c
18
30
62
fe
ENDCHAR
STARTCHAR braceleft
ENCODING 123
SWIDTH 361 0
DWIDTH 5 0
BBX 5 13 1 -3
BITMAP
38
30
30
30
30
60
c0
40
60
60
c0
c0
60
ENDCHAR
STARTCHAR bar
ENCODING 124
SWIDTH 253 0
DWIDTH 4 0
BBX 4 13 1 -3
BITMAP
10
10
20
20
20
20
60
40
40
40
40
80
80
ENDCHAR
STARTCHAR braceright
ENCODING 125
SWIDTH 361 0
DWIDTH 5 0
BBX 5 13 0 -3
BITMAP
30
18
18
30
30
10
18
30
60
60
60
60
e0
ENDCHAR
STARTCHAR asciitilde
ENCODING 126
SWIDTH 636 0
DWIDTH 9 0
BBX 8 3 1 2
BITMAP
71
99
8e
ENDCHAR
STARTCHAR nobreakspace
ENCODING 160
SWIDTH 333 0
DWIDTH 4 0
BBX 1 1 0 0
BITMAP
00
ENDCHAR
STARTCHAR Aogonek
ENCODING 161
SWIDTH 765 0
DWIDTH 11 0
BBX 11 12 0 -2
BITMAP
0100
0300
0580
0580
0980
1180
1fc0
20c0
40c0
e1e0
0400
0e00
ENDCHAR
STARTCHAR breve
ENCODING 162
SWIDTH 599 0
DWIDTH 8 0
BBX 5 2 4 8
BITMAP
88
70
ENDCHAR
STARTCHAR Lstroke
ENCODING 163
SWIDTH 611 0
DWIDTH 9 0
BBX 8 10 1 0
BITMAP
3c
18
18
30
7c
b0
30
31
61
ff
ENDCHAR
STARTCHAR currency
ENCODING 164
SWIDTH 636 0
DWIDTH 9 0
BBX 10 10 1 0
BITMAP
6040
2080
1f00
1100
2100
2100
3300
3e00
4100
8080
ENDCHAR
STARTCHAR Lcaron
ENCODING 165
SWIDTH 792 0
DWIDTH 11 0
BBX 10 11 1 0
BITMAP
00c0
3dc0
1880
1980
3000
3000
3000
3000
3100
6100
ff00
ENDCHAR
STARTCHAR Sacute
ENCODING 166
SWIDTH 587 0
DWIDTH 8 0
BBX 9 13 1 0
BITMAP
0380
0600
0000
1f00
3100
7100
3000
3800
1e00
0600
8600
8e00
f800
ENDCHAR
STARTCHAR section
ENCODING 167
SWIDTH 636 0
DWIDTH 9 0
BBX 8 13 1 -3
BITMAP
1f
31
31
30
3c
6e
62
72
3c
0e
86
8c
f8
ENDCHAR
STARTCHAR diaeresis
ENCODING 168
SWIDTH 599 0
DWIDTH 8 0
BBX 5 1 4 9
BITMAP
d8
ENDCHAR
STARTCHAR Scaron
ENCODING 169
SWIDTH 587 0
DWIDTH 8 0
BBX 9 13 1 0
BITMAP
0980
0600
0000
1f00
3100
7100
3000
3800
1e00
0600
8600
8e00
f800
ENDCHAR
STARTCHAR Scedilla
ENCODING 170
SWIDTH 587 0
DWIDTH 8 0
BBX 8 13 1 -3
BITMAP
1f
31
71
30
38
1e
06
86
8e
f8
18
08
38
ENDCHAR
STARTCHAR Tcaron
ENCODING 171
SWIDTH 716 0
DWIDTH 10 0
BBX 10 13 2 0
BITMAP
0980
0600
0000
ffc0
8c40
0c00
1c00
1800
1800
1800
1800
3800
7c00
ENDCHAR
STARTCHAR Zacute
ENCODING 172
SWIDTH 684 0
DWIDTH 10 0
BBX 10 13 1 0
BITMAP
01c0
0300
0000
3fc0
2180
0300
0700
0e00
1c00
3800
3000
6180
ff00
ENDCHAR
STARTCHAR hyphen
ENCODING 173
SWIDTH 289 0
DWIDTH 4 0
BBX 3 1 1 4
BITMAP
e0
ENDCHAR
STARTCHAR Zcaron
ENCODING 174
SWIDTH 684 0
DWIDTH 10 0
BBX 10 13 1 0
BITMAP
04c0
0300
0000
3fc0
2180
0300
0700
0e00
1c00
3800
3000
6180
ff00
ENDCHAR
STARTCHAR Zabovedot
ENCODING 175
SWIDTH 684 0
DWIDTH 10 0
BBX 10 13 1 0
BITMAP
0300
0300
0000
3fc0
2180
0300
0700
0e00
1c00
3800
3000
6180
ff00
ENDCHAR
STARTCHAR degree
ENCODING 176
SWIDTH 259 0
DWIDTH 4 0
BBX 2 2 3 8
BITMAP
c0
c0
ENDCHAR
STARTCHAR aogonek
ENCODING 177
SWIDTH 634 0
DWIDTH 9 0
BBX 8 9 1 -2
BITMAP
1f
23
62
c6
ce
d6
e7
10
38
ENDCHAR
STARTCHAR ogonek
ENCODING 178
SWIDTH 599 0
DWIDTH 8 0
BBX 3 2 2 -3
BITMAP
40
e0
ENDCHAR
STARTCHAR lstroke
ENCODING 179
SWIDTH 319 0
DWIDTH 4 0
BBX 5 10 1 0
BITMAP
70
30
30
30
38
e0
60
60
60
f0
ENDCHAR
STARTCHAR acute
ENCODING 180
SWIDTH 599 0
DWIDTH 8 0
BBX 4 2 5 8
BITMAP
70
c0
ENDCHAR
STARTCHAR lcaron
ENCODING 181
SWIDTH 576 0
DWIDTH 8 0
BBX 8 11 1 0
BITMAP
03
77
32
76
60
60
60
60
e0
c0
e0
ENDCHAR
STARTCHAR sacute
ENCODING 182
SWIDTH 479 0
DWIDTH 7 0
BBX 7 10 1 0
BITMAP
0e
18
00
3e
64
70
38
9c
8c
f8
ENDCHAR
STARTCHAR caron
ENCODING 183
SWIDTH 599 0
DWIDTH 8 0
BBX 5 2 4 8
BITMAP
98
60
ENDCHAR
STARTCHAR cedilla
ENCODING 184
SWIDTH 599 0
DWIDTH 8 0
BBX 3 3 2 -3
BITMAP
60
20
e0
ENDCHAR
STARTCHAR scaron
ENCODING 185
SWIDTH 479 0
DWIDTH 7 0
BBX 7 10 1 0
BITMAP
26
18
00
3e
64
70
38
9c
8c
f8
ENDCHAR
STARTCHAR scedilla
ENCODING 186
SWIDTH 479 0
DWIDTH 7 0
BBX 7 10 1 -3
BITMAP
3e
64
70
38
9c
8c
f8
18
08
38
ENDCHAR
STARTCHAR tcaron
ENCODING 187
SWIDTH 375 0
DWIDTH 5 0
BBX 5 14 1 0
BITMAP
30
70
20
60
00
70
60
f8
60
60
60
c0
c0
70
ENDCHAR
STARTCHAR zacute
ENCODING 188
SWIDTH 567 0
DWIDTH 8 0
BBX 8 10 1 0
BITMAP
07
0c
00
3f
46
0c
18
30
62
fe
ENDCHAR
STARTCHAR doubleacute
ENCODING 189
SWIDTH 599 0
DWIDTH 8 0
BBX 5 2 5 8
BITMAP
78
a0
ENDCHAR
STARTCHAR zcaron
ENCODING 190
SWIDTH 567 0
DWIDTH 8 0
BBX 8 10 1 0
BITMAP
13
0c
00
3f
46
0c
18
30
62
fe
ENDCHAR
STARTCHAR zabovedot
ENCODING 191
SWIDTH 567 0
DWIDTH 8 0
BBX 8 10 1 0
BITMAP
0c
0c
00
3f
46
0c
18
30
62
fe
ENDCHAR
STARTCHAR Racute
ENCODING 192
SWIDTH 711 0
DWIDTH 10 0
BBX 10 13 0 0
BITMAP
01c0
0300
0000
3fc0
18c0
18c0
1980
3f00
3600
3300
3300
7180
f1c0
ENDCHAR
STARTCHAR Aacute
ENCODING 193
SWIDTH 765 0
DWIDTH 11 0
BBX 11 13 0 0
BITMAP
01c0
0300
0000
0100
0300
0580
0580
0980
1180
1fc0
20c0
40c0
e1e0
ENDCHAR
STARTCHAR Acircumflex
ENCODING 194
SWIDTH 765 0
DWIDTH 11 0
BBX 11 13 0 0
BITMAP
0180
0640
0000
0100
0300
0580
0580
0980
1180
1fc0
20c0
40c0
e1e0
ENDCHAR
STARTCHAR Abreve
ENCODING 195
SWIDTH 765 0
DWIDTH 11 0
BBX 11 13 0 0
BITMAP
0440
0380
0000
0100
0300
0580
0580
0980
1180
1fc0
20c0
40c0
e1e0
ENDCHAR
STARTCHAR Adiaeresis
ENCODING 196
SWIDTH 765 0
DWIDTH 11 0
BBX 11 12 0 0
BITMAP
06c0
0000
0100
0300
0580
0580
0980
1180
1fc0
20c0
40c0
e1e0
ENDCHAR
STARTCHAR Lacute
ENCODING 197
SWIDTH 611 0
DWIDTH 9 0
BBX 8 13 1 0
BITMAP
07
0c
00
3c
18
18
30
30
30
30
31
61
ff
ENDCHAR
STARTCHAR Cacute
ENCODING 198
SWIDTH 740 0
DWIDTH 10 0
BBX 10 13 1 0
BITMAP
01c0
0300
0000
0fc0
38c0
60c0
6000
e000
c000
c000
e000
6100
3e00
ENDCHAR
STARTCHAR Ccedilla
ENCODING 199
SWIDTH 740 0
DWIDTH 10 0
BBX 10 13 1 -3
BITMAP
0fc0
38c0
60c0
6000
e000
c000
c000
e000
6100
3e00
1000
0800
3800
ENDCHAR
STARTCHAR Ccaron
ENCODING 200
SWIDTH 740 0
DWIDTH 10 0
BBX 10 13 1 0
BITMAP
04c0
0300
0000
0fc0
38c0
60c0
6000
e000
c000
c000
e000
6100
3e00
ENDCHAR
STARTCHAR Eacute
ENCODING 201
SWIDTH 630 0
DWIDTH 9 0
BBX 9 13 1 0
BITMAP
0380
0600
0000
3f80
1880
1800
3200
3e00
3200
3000
6000
6100
fe00
ENDCHAR
STARTCHAR Eogonek
ENCODING 202
SWIDTH 630 0
DWIDTH 9 0
BBX 9 12 1 -2
BITMAP
3f80
1880
1800
3200
3e00
3200
3000
6000
6100
fe00
0800
1c00
ENDCHAR
STARTCHAR Ediaeresis
ENCODING 203
SWIDTH 630 0
DWIDTH 9 0
BBX 9 12 1 0
BITMAP
0d80
0000
3f80
1880
1800
3200
3e00
3200
3000
6000
6100
fe00
ENDCHAR
STARTCHAR Ecaron
ENCODING 204
SWIDTH 630 0
DWIDTH 9 0
BBX 9 13 1 0
BITMAP
0980
0600
0000
3f80
1880
1800
3200
3e00
3200
3000
6000
6100
fe00
ENDCHAR
STARTCHAR Iacute
ENCODING 205
SWIDTH 372 0
DWIDTH 5 0
BBX 7 13 1 0
BITMAP
0e
18
00
3c
18
38
30
30
30
30
60
60
f0
ENDCHAR
STARTCHAR Icircumflex
ENCODING 206
SWIDTH 372 0
DWIDTH 5 0
BBX 7 13 1 0
BITMAP
0c
32
00
3c
18
38
30
30
30
30
60
60
f0
ENDCHAR
STARTCHAR Dcaron
ENCODING 207
SWIDTH 822 0
DWIDTH 11 0
BBX 11 13 1 0
BITMAP
04c0
0300
0000
3f80
18c0
1860
3060
3060
3060
30c0
30c0
6380
fe00
ENDCHAR
STARTCHAR Dstroke
ENCODING 208
SWIDTH 822 0
DWIDTH 11 0
BBX 11 10 1 0
BITMAP
3f80
18c0
3860
3060
7c60
3060
30c0
70c0
6380
fe00
ENDCHAR
STARTCHAR Nacute
ENCODING 209
SWIDTH 797 0
DWIDTH 11 0
BBX 12 13 1 0
BITMAP
00e0
0180
0000
3870
1820
1c60
2c40
2640
2640
2340
2380
4180
e080
ENDCHAR
STARTCHAR Ncaron
ENCODING 210
SWIDTH 797 0
DWIDTH 11 0
BBX 12 13 1 0
BITMAP
0260
0180
0000
3870
1820
1c60
2c40
2640
2640
2340
2380
4180
e080
ENDCHAR
STARTCHAR Oacute
ENCODING 211
SWIDTH 831 0
DWIDTH 12 0
BBX 11 13 2 0
BITMAP
0380
0600
0000
0f80
38c0
70c0
60e0
e0e0
c0c0
c0c0
c180
6300
3c00
ENDCHAR
STARTCHAR Ocircumflex
ENCODING 212
SWIDTH 831 0
DWIDTH 12 0
BBX 11 13 2 0
BITMAP
0300
0c80
0000
0f80
38c0
70c0
60e0
e0e0
c0c0
c0c0
c180
6300
3c00
ENDCHAR
STARTCHAR Odoubleacute
ENCODING 213
SWIDTH 831 0
DWIDTH 12 0
BBX 11 13 2 0
BITMAP
03c0
0500
0000
0f80
38c0
70c0
60e0
e0e0
c0c0
c0c0
c180
6300
3c00
ENDCHAR
STARTCHAR Odiaeresis
ENCODING 214
SWIDTH 831 0
DWIDTH 12 0
BBX 11 12 2 0
BITMAP
0d80
0000
0f80
38c0
70c0
60e0
e0e0
c0c0
c0c0
c180
6300
3c00
ENDCHAR
STARTCHAR multiply
ENCODING 215
SWIDTH 636 0
DWIDTH 9 0
BBX 9 8 1 0
BITMAP
6080
2100
1200
1c00
1c00
2400
4200
8300
ENDCHAR
STARTCHAR Rcaron
ENCODING 216
SWIDTH 711 0
DWIDTH 10 0
BBX 10 13 0 0
BITMAP
04c0
0300
0000
3fc0
18c0
18c0
1980
3f00
3600
3300
3300
7180
f1c0
ENDCHAR
STARTCHAR Uring
ENCODING 217
SWIDTH 775 0
DWIDTH 11 0
BBX 10 13 2 0
BITMAP
0600
0600
0000
f9c0
6080
6080
6080
e100
c100
c100
c100
e200
7c00
ENDCHAR
STARTCHAR Uacute
ENCODING 218
SWIDTH 775 0
DWIDTH 11 0
BBX 10 13 2 0
BITMAP
0700
0c00
0000
f9c0
6080
6080
6080
e100
c100
c100
c100
e200
7c00
ENDCHAR
STARTCHAR Udoubleacute
ENCODING 219
SWIDTH 775 0
DWIDTH 11 0
BBX 10 13 2 0
BITMAP
0780
0a00
0000
f9c0
6080
6080
6080
e100
c100
c100
c100
e200
7c00
ENDCHAR
STARTCHAR Udiaeresis
ENCODING 220
SWIDTH 775 0
DWIDTH 11 0
BBX 10 12 2 0
BITMAP
1b00
0000
f9c0
6080
6080
6080
e100
c100
c100
c100
e200
7c00
ENDCHAR
STARTCHAR Yacute
ENCODING 221
SWIDTH 669 0
DWIDTH 9 0
BBX 10 13 2 0
BITMAP
0700
0c00
0000
f1c0
6080
7100
3200
3c00
1800
1800
3000
3000
7800
ENDCHAR
STARTCHAR Tcedilla
ENCODING 222
SWIDTH 716 0
DWIDTH 10 0
BBX 10 13 2 -3
BITMAP
ffc0
8c40
0c00
1c00
1800
1800
1800
1800
3800
7c00
0c00
0400
1c00
ENDCHAR
STARTCHAR ssharp
ENCODING 223
SWIDTH 656 0
DWIDTH 9 0
BBX 8 14 1 -3
BITMAP
1e
13
32
34
34
3c
66
67
63
6b
7e
c0
c0
c0
ENDCHAR
STARTCHAR racute
ENCODING 224
SWIDTH 496 0
DWIDTH 7 0
BBX 7 10 1 0
BITMAP
0e
18
00
e6
6c
70
60
60
c0
c0
ENDCHAR
STARTCHAR aacute
ENCODING 225
SWIDTH 634 0
DWIDTH 9 0
BBX 8 10 1 0
BITMAP
07
0c
00
1f
23
62
c6
ce
d6
e7
ENDCHAR
STARTCHAR acircumflex
ENCODING 226
SWIDTH 634 0
DWIDTH 9 0
BBX 8 10 1 0
BITMAP
06
19
00
1f
23
62
c6
ce
d6
e7
ENDCHAR
STARTCHAR abreve
ENCODING 227
SWIDTH 634 0
DWIDTH 9 0
BBX 8 10 1 0
BITMAP
22
1c
00
1f
23
62
c6
ce
d6
e7
ENDCHAR
STARTCHAR adiaeresis
ENCODING 228
SWIDTH 634 0
DWIDTH 9 0
BBX 8 9 1 0
BITMAP
1b
00
1f
23
62
c6
ce
d6
e7
ENDCHAR
STARTCHAR lacute
ENCODING 229
SWIDTH 319 0
DWIDTH 4 0
BBX 6 13 1 0
BITMAP
1c
30
00
70
30
70
60
60
60
60
e0
c0
e0
ENDCHAR
STARTCHAR cacute
ENCODING 230
SWIDTH 524 0
DWIDTH 7 0
BBX 8 10 1 0
BITMAP
07
0c
00
1e
22
62
c0
c0
c4
78
ENDCHAR
STARTCHAR ccedilla
ENCODING 231
SWIDTH 524 0
DWIDTH 7 0
BBX 7 10 1 -3
BITMAP
1e
22
62
c0
c0
c4
78
20
10
70
ENDCHAR
STARTCHAR ccaron
ENCODING 232
SWIDTH 524 0
DWIDTH 7 0
BBX 8 10 1 0
BITMAP
13
0c
00
1e
22
62
c0
c0
c4
78
ENDCHAR
STARTCHAR eacute
ENCODING 233
SWIDTH 548 0
DWIDTH 8 0
BBX 7 10 1 0
BITMAP
0e
18
00
1c
66
4c
f8
c0
c6
7c
ENDCHAR
STARTCHAR eogonek
ENCODING 234
SWIDTH 548 0
DWIDTH 8 0
BBX 7 9 1 -2
BITMAP
1c
66
4c
f8
c0
c6
7c
10
38
ENDCHAR
STARTCHAR ediaeresis
ENCODING 235
SWIDTH 548 0
DWIDTH 8 0
BBX 7 9 1 0
BITMAP
36
00
1c
66
4c
f8
c0
c6
7c
ENDCHAR
STARTCHAR ecaron
ENCODING 236
SWIDTH 548 0
DWIDTH 8 0
BBX 7 10 1 0
BITMAP
26
18
00
1c
66
4c
f8
c0
c6
7c
ENDCHAR
STARTCHAR iacute
ENCODING 237
SWIDTH 319 0
DWIDTH 4 0
BBX 6 10 1 0
BITMAP
1c
30
00
f0
70
60
60
60
e0
f0
ENDCHAR
STARTCHAR icircumflex
ENCODING 238
SWIDTH 319 0
DWIDTH 4 0
BBX 6 10 1 0
BITMAP
18
64
00
f0
70
60
60
60
e0
f0
ENDCHAR
STARTCHAR dcaron
ENCODING 239
SWIDTH 936 0
DWIDTH 13 0
BBX 13 11 1 0
BITMAP
0018
03b8
0190
0330
1f00
2300
6300
c700
ce00
de00
f700
ENDCHAR
STARTCHAR dstroke
ENCODING 240
SWIDTH 864 0
DWIDTH 12 0
BBX 12 10 1 0
BITMAP
0180
1ff0
0300
1f00
2300
6300
c700
ce00
de00
f700
ENDCHAR
STARTCHAR nacute
ENCODING 241
SWIDTH 656 0
DWIDTH 9 0
BBX 8 10 1 0
BITMAP
0e
18
00
f7
6b
73
67
66
c6
c7
ENDCHAR
STARTCHAR ncaron
ENCODING 242
SWIDTH 656 0
DWIDTH 9 0
BBX 8 10 1 0
BITMAP
26
18
00
f7
6b
73
67
66
c6
c7
ENDCHAR
STARTCHAR oacute
ENCODING 243
SWIDTH 599 0
DWIDTH 8 0
BBX 8 10 1 0
BITMAP
07
0c
00
1e
23
63
c3
c6
cc
78
ENDCHAR
STARTCHAR ocircumflex
ENCODING 244
SWIDTH 599 0
DWIDTH 8 0
BBX 8 10 1 0
BITMAP
06
19
00
1e
23
63
c3
c6
cc
78
ENDCHAR
STARTCHAR odoubleacute
ENCODING 245
SWIDTH 599 0
DWIDTH 8 0
BBX 8 10 1 0
BITMAP
0f
14
00
1e
23
63
c3
c6
cc
78
ENDCHAR
STARTCHAR odiaeresis
ENCODING 246
SWIDTH 599 0
DWIDTH 8 0
BBX 8 9 1 0
BITMAP
1b
00
1e
23
63
c3
c6
cc
78
ENDCHAR
STARTCHAR division
ENCODING 247
SWIDTH 636 0
DWIDTH 9 0
BBX 8 7 1 0
BITMAP
08
00
00
ff
00
00
10
ENDCHAR
STARTCHAR rcaron
ENCODING 248
SWIDTH 496 0
DWIDTH 7 0
BBX 7 10 1 0
BITMAP
26
18
00
e6
6c
70
60
60
c0
c0
ENDCHAR
STARTCHAR uring
ENCODING 249
SWIDTH 655 0
DWIDTH 9 0
BBX 8 10 1 0
BITMAP
18
18
00
e7
63
66
e6
ce
d6
ef
ENDCHAR
STARTCHAR uacute
ENCODING 250
SWIDTH 655 0
DWIDTH 9 0
BBX 8 10 1 0
BITMAP
07
0c
00
e7
63
66
e6
ce
d6
ef
ENDCHAR
STARTCHAR udoubleacute
ENCODING 251
SWIDTH 655 0
DWIDTH 9 0
BBX 8 10 1 0
BITMAP
1e
28
00
e7
63
66
e6
ce
d6
ef
ENDCHAR
STARTCHAR udiaeresis
ENCODING 252
SWIDTH 655 0
DWIDTH 9 0
BBX 8 9 1 0
BITMAP
1b
00
e7
63
66
e6
ce
d6
ef
ENDCHAR
STARTCHAR yacute
ENCODING 253
SWIDTH 586 0
DWIDTH 8 0
BBX 10 13 0 -3
BITMAP
0380
0600
0000
79c0
38c0
1880
1900
1a00
0c00
0c00
0800
1000
e000
ENDCHAR
STARTCHAR tcedilla
ENCODING 254
SWIDTH 375 0
DWIDTH 5 0
BBX 5 12 1 -3
BITMAP
70
60
f8
60
60
60
c0
c0
70
30
10
70
ENDCHAR
STARTCHAR abovedot
ENCODING 255
SWIDTH 599 0
DWIDTH 8 0
BBX 2 2 5 8
BITMAP
c0
c0
ENDCHAR
ENDFONT
